<svg width="29" height="29" viewBox="0 0 29 29" fill="none" xmlns="http://www.w3.org/2000/svg">
<path d="M5.35113 23.0442C4.04102 21.7341 3.38597 20.1677 3.38597 18.3449C3.38597 16.5221 4.04102 14.9557 5.35113 13.6456L14.3226 4.67417C15.2624 3.73431 16.4016 3.26437 17.7402 3.26437C19.0788 3.26437 20.2181 3.7343 21.1579 4.67417C22.0978 5.61403 22.5677 6.75326 22.5677 8.09185C22.5677 9.43044 22.0978 10.5697 21.1579 11.5095L13.0409 19.6265C12.4428 20.2246 11.7308 20.5237 10.9049 20.5237C10.0789 20.5237 9.36691 20.2246 8.76882 19.6265C8.17072 19.0284 7.87168 18.3164 7.87168 17.4905C7.87168 16.6645 8.17072 15.9525 8.76882 15.3544L16.8858 7.23743L18.1674 8.51906L10.0504 16.6361C9.80836 16.8781 9.6876 17.163 9.68817 17.4905C9.6876 17.818 9.80836 18.1028 10.0504 18.3449C10.2925 18.587 10.5776 18.708 10.9057 18.708C11.2327 18.708 11.5172 18.587 11.7593 18.3449L19.8763 10.2279C20.4744 9.62981 20.7734 8.91779 20.7734 8.09185C20.7734 7.26591 20.4744 6.55389 19.8763 5.9558C19.2782 5.3577 18.5662 5.05866 17.7402 5.05866C16.9143 5.05866 16.2023 5.3577 15.6042 5.9558L6.63277 14.9272C5.6929 15.8671 5.22297 17.0063 5.22297 18.3449C5.22297 19.6835 5.6929 20.8227 6.63276 21.7626C7.57263 22.7024 8.71185 23.1724 10.0504 23.1724C11.389 23.1724 12.5283 22.7024 13.4681 21.7626L22.4395 12.7912L23.7212 14.0728L14.7498 23.0442C13.4396 24.3543 11.8732 25.0094 10.0504 25.0094C8.22768 25.0094 6.66125 24.3543 5.35113 23.0442Z" fill="#4E3D33"/>
</svg>
