<svg width="26" height="26" viewBox="0 0 26 26" fill="none" xmlns="http://www.w3.org/2000/svg">
<path d="M12.0483 2.95106C12.3463 2.02697 13.6537 2.02697 13.9517 2.95105L15.6796 8.3088C15.8131 8.72265 16.1987 9.00281 16.6335 9.00186L22.263 8.98956C23.234 8.98743 23.638 10.2309 22.8512 10.7999L18.2896 14.0988C17.9373 14.3536 17.79 14.807 17.9253 15.2202L19.6766 20.5704C19.9786 21.4931 18.9209 22.2616 18.1367 21.6892L13.5896 18.3703C13.2383 18.1139 12.7617 18.1139 12.4104 18.3703L7.86335 21.6892C7.07908 22.2616 6.02135 21.4931 6.32341 20.5704L8.07472 15.2202C8.20999 14.807 8.0627 14.3536 7.71035 14.0988L3.14879 10.7999C2.36202 10.2309 2.76604 8.98743 3.73699 8.98956L9.36646 9.00186C9.80129 9.00281 10.1869 8.72265 10.3204 8.3088L12.0483 2.95106Z" fill="#20B038"/>
</svg>
