<svg id="vk" width="40" height="40" viewBox="0 0 40 40" fill="none" xmlns="http://www.w3.org/2000/svg">
<g clip-path="url(#clip0_322_558)">
<circle cx="20" cy="20" r="20" fill="white"/>
<path d="M20 0C8.9543 0 0 8.9543 0 20C0 31.0457 8.9543 40 20 40C31.0457 40 40 31.0457 40 20C40 8.9543 31.0457 0 20 0ZM31 27H28C27.7251 27.0003 27.2478 27.119 27 27C26.7522 26.881 27.1715 26.2148 27 26C26.2389 25.0445 24.5743 23.7277 23 23C23.1005 22.9936 22.9088 22.9573 23 23C22.8995 23.0064 22.085 22.9461 22 23C22.0486 22.9118 21.915 23.0539 22 23C22.0002 22.8993 21.9514 23.0882 22 23V26C22.0509 25.877 22 26.1331 22 26C22.0941 25.9059 21.9491 26.123 22 26C21.9059 26.0941 21.123 26.949 21 27C21.1331 27 20.877 27.051 21 27H20C18.4739 27 14.6187 25.8147 12 22C9.76875 18.75 9.58 16.0422 9 14C8.97689 14.1222 8.96628 13.8803 9 14C8.92489 14.0991 9.02311 13.8778 9 14C9.07511 13.9009 8.88862 13.0553 9 13C8.87565 12.9999 9.11138 12.9447 9 13H12C12.2561 12.9998 12.7945 12.8471 13 13C13.2055 13.1529 12.9266 13.7546 13 14C13.4774 15.5968 14.8142 19.2847 17 21C16.9156 20.9908 17.0666 21.0525 17 21C16.9236 21.037 17.0844 21.0092 17 21C17.0764 20.963 17.9549 21.0719 18 21C18.0451 20.9281 17.9999 20.0849 18 20V16C18 15.2054 17.5375 14.6213 17 14C17.0169 14.1168 16.9225 13.9109 17 14C16.951 14.1074 16.9831 13.8832 17 14C17.049 13.8926 16.9007 13.0639 17 13C16.8819 13 17.0993 12.9361 17 13H21C21.2038 13 21.8559 12.8559 22 13C22.1441 13.1441 22 13.7962 22 14V19C22 19.0784 21.9592 19.933 22 20C21.9303 19.964 22.0408 20.067 22 20C21.9218 20.0055 22.0697 20.036 22 20C22.0782 19.9945 22.9361 20.0454 23 20C23.7266 19.4828 24.4277 18.8588 25 18C25.7203 16.9197 26.5591 14.9268 27 14C27.0854 13.8205 26.8319 13.1062 27 13C27.1681 12.8938 27.8012 13 28 13H30C30.1169 13 30.8978 12.9432 31 13C31.1022 13.0568 30.9384 13.9006 31 14C30.9945 13.8832 31.0616 14.0994 31 14C31.052 13.8953 31.0055 14.1168 31 14C30.2934 15.4172 29.295 18.4747 28 20C27.8146 20.2194 26.9762 20.7138 27 21C27.0238 21.2862 27.781 20.8142 28 21C28.8441 21.7213 29.5792 23.779 31 26C30.9947 25.8555 31.0784 26.1216 31 26C31.0692 25.873 31.0053 26.1445 31 26C30.9308 26.127 31.1243 26.9261 31 27C31.1446 26.9999 30.8757 27.0739 31 27Z" fill="url(#paint0_linear_322_558)"/>
<path d="M20 0C8.9543 0 0 8.9543 0 20C0 31.0457 8.9543 40 20 40C31.0457 40 40 31.0457 40 20C40 8.9543 31.0457 0 20 0ZM31 27H28C27.7251 27.0003 27.2478 27.119 27 27C26.7522 26.881 27.1715 26.2148 27 26C26.2389 25.0445 24.5743 23.7277 23 23C23.1005 22.9936 22.9088 22.9573 23 23C22.8995 23.0064 22.085 22.9461 22 23C22.0486 22.9118 21.915 23.0539 22 23C22.0002 22.8993 21.9514 23.0882 22 23V26C22.0509 25.877 22 26.1331 22 26C22.0941 25.9059 21.9491 26.123 22 26C21.9059 26.0941 21.123 26.949 21 27C21.1331 27 20.877 27.051 21 27H20C18.4739 27 14.6187 25.8147 12 22C9.76875 18.75 9.58 16.0422 9 14C8.97689 14.1222 8.96628 13.8803 9 14C8.92489 14.0991 9.02311 13.8778 9 14C9.07511 13.9009 8.88862 13.0553 9 13C8.87565 12.9999 9.11138 12.9447 9 13H12C12.2561 12.9998 12.7945 12.8471 13 13C13.2055 13.1529 12.9266 13.7546 13 14C13.4774 15.5968 14.8142 19.2847 17 21C16.9156 20.9908 17.0666 21.0525 17 21C16.9236 21.037 17.0844 21.0092 17 21C17.0764 20.963 17.9549 21.0719 18 21C18.0451 20.9281 17.9999 20.0849 18 20V16C18 15.2054 17.5375 14.6213 17 14C17.0169 14.1168 16.9225 13.9109 17 14C16.951 14.1074 16.9831 13.8832 17 14C17.049 13.8926 16.9007 13.0639 17 13C16.8819 13 17.0993 12.9361 17 13H21C21.2038 13 21.8559 12.8559 22 13C22.1441 13.1441 22 13.7962 22 14V19C22 19.0784 21.9592 19.933 22 20C21.9303 19.964 22.0408 20.067 22 20C21.9218 20.0055 22.0697 20.036 22 20C22.0782 19.9945 22.9361 20.0454 23 20C23.7266 19.4828 24.4277 18.8588 25 18C25.7203 16.9197 26.5591 14.9268 27 14C27.0854 13.8205 26.8319 13.1062 27 13C27.1681 12.8938 27.8012 13 28 13H30C30.1169 13 30.8978 12.9432 31 13C31.1022 13.0568 30.9384 13.9006 31 14C30.9945 13.8832 31.0616 14.0994 31 14C31.052 13.8953 31.0055 14.1168 31 14C30.2934 15.4172 29.295 18.4747 28 20C27.8146 20.2194 26.9762 20.7138 27 21C27.0238 21.2862 27.781 20.8142 28 21C28.8441 21.7213 29.5792 23.779 31 26C30.9947 25.8555 31.0784 26.1216 31 26C31.0692 25.873 31.0053 26.1445 31 26C30.9308 26.127 31.1243 26.9261 31 27C31.1446 26.9999 30.8757 27.0739 31 27Z" fill="#006EF3"/>
</g>
<defs>
<linearGradient id="paint0_linear_322_558" x1="0.290548" y1="39.7095" x2="36.7866" y2="3.21344" gradientUnits="userSpaceOnUse">
<stop stop-color="#025BC7"/>
<stop offset="1" stop-color="#0089FD"/>
</linearGradient>
<clipPath id="clip0_322_558">
<rect width="40" height="40" fill="white"/>
</clipPath>
</defs>
</svg>
