<svg width="35" height="35" viewBox="0 0 35 35" fill="none" xmlns="http://www.w3.org/2000/svg">
<path d="M15 7V26C15 27.566 14.05 28.956 13 30V30C12.865 30.1305 13.135 30.8985 13 31C12.55 31.377 11.525 31.797 11 32C10.835 32.0725 11.165 31.942 11 32C10.415 32.1885 9.61501 32 9.00001 32C8.59501 32 8.39001 32.0725 8.00001 32C7.80501 31.9565 7.19501 32.058 7.00001 32C6.76001 31.9275 7.22501 31.1015 7.00001 31C7.00001 30.9855 7.01501 30.9855 7.00001 31C6.58001 30.797 5.37501 31.2755 5.00001 31V31C4.80501 30.855 5.16501 30.174 5.00001 30C4.83501 29.826 4.16501 30.1885 4.00001 30C3.71501 29.6375 4.21001 29.406 4.00001 29C4.01501 28.9855 4.01501 29 4.00001 29C4.00001 29 4.01501 29.0145 4.00001 29C3.91001 28.797 3.07501 28.2175 3.00001 28C2.94001 27.8115 3.04501 27.1885 3.00001 27C2.92501 26.623 3.00001 26.3915 3.00001 26V7C3.00001 4.825 4.75001 3 7.00001 3H11C13.25 3 15 4.825 15 7Z" stroke="#292D32" stroke-width="1.5" stroke-linecap="round" stroke-linejoin="round"/>
<path d="M32 24V28C32 30.25 30.1562 32 28 32H9C9.58938 32 10.4394 32.195 11 32C11.1581 31.94 10.8419 32.075 11 32C11.5031 31.79 12.5687 31.39 13 31C13.1294 30.895 12.8706 30.135 13 30V30L23 20H28C30.1562 20 32 21.75 32 24Z" stroke="#292D32" stroke-width="1.5" stroke-linecap="round" stroke-linejoin="round"/>
<path d="M7 32C6.08745 31.7262 5.71483 30.73 5 30C4.26996 29.2852 3.27376 28.9125 3 28C3.59315 29.9011 5.09886 31.4068 7 32Z" stroke="#292D32" stroke-width="1.5" stroke-linecap="round" stroke-linejoin="round"/>
<path d="M27 16L23 20L13 30C14.0189 28.9621 15 27.5569 15 26V12L19 8.00004C20.5429 6.47199 22.4571 6.47199 24 8.00004L27 11C28.5429 12.5281 28.5429 14.472 27 16Z" stroke="#292D32" stroke-width="1.5" stroke-linecap="round" stroke-linejoin="round"/>
<path d="M9 28C9.82843 28 10 27.8284 10 27C10 26.1716 9.82843 25 9 25C8.17157 25 7 26.1716 7 27C7 27.8284 8.17157 28 9 28Z" stroke="#292D32" stroke-width="1.5" stroke-linecap="round" stroke-linejoin="round"/>
</svg>
