<svg width="35" height="35" viewBox="0 0 35 35" fill="none" xmlns="http://www.w3.org/2000/svg">
<path d="M27 20C26.3811 20.6042 25.9116 21.0716 26 22C26.1326 23.5916 27.4084 25 29 25H32V26C32 29.0505 29.0505 32 26 32H12C12.4568 31.6168 12.6905 31.5305 13 31C13.5453 30.1158 14 29.1053 14 28C14 24.7432 11.2568 22 8 22C6.61474 22 5.01684 22.1895 4 23V17C4 13.9495 6.94947 11 10 11H26C29.0505 11 32 13.9495 32 17V19H29C28.1747 19 27.5453 19.44 27 20Z" stroke="#292D32" stroke-width="1.5" stroke-linecap="round" stroke-linejoin="round"/>
<path d="M4 17.9999V10.9999C4 9.27769 5.38219 8.60778 7 7.99993L18 2.99993C19.8073 2.31972 22 4.07507 22 5.99993V10.9999" stroke="#292D32" stroke-width="1.5" stroke-linecap="round" stroke-linejoin="round"/>
<path d="M32 20V24C32 24.8049 31.7643 24.9707 31 25H28C26.5261 25 25.1229 23.5805 25 22C24.9181 21.078 25.4268 20.6 26 20C26.505 19.4439 27.2358 19 28 19H31C31.7643 19.0293 32 19.1951 32 20Z" stroke="#292D32" stroke-width="1.5" stroke-linecap="round" stroke-linejoin="round"/>
<path d="M10 18H20" stroke="#292D32" stroke-width="1.5" stroke-linecap="round" stroke-linejoin="round"/>
<path d="M13 28C13 29.125 12.555 30.1 12 31C11.685 31.54 11.465 32.61 11 33C9.95 33.945 8.515 34 7 34C4.81 34 3.035 32.74 2 31C1.445 30.1 1 29.125 1 28C1 26.11 1.62 24.095 3 23C4.035 22.175 5.59 22 7 22C10.315 22 13 24.685 13 28Z" stroke="#292D32" stroke-width="1.5" stroke-miterlimit="10" stroke-linecap="round" stroke-linejoin="round"/>
<path d="M5 28L7 30L10 27" stroke="#292D32" stroke-width="1.5" stroke-linecap="round" stroke-linejoin="round"/>
</svg>
