<svg width="35" height="36" viewBox="0 0 35 36" fill="none" xmlns="http://www.w3.org/2000/svg">
<path d="M21 29L23 31L28 27" stroke="#292D32" stroke-width="1.5" stroke-linecap="round" stroke-linejoin="round"/>
<path d="M9 9C9 13.3341 11.9752 16.8555 16 17C16.186 16.9819 16.8309 16.9819 17 17C21.0079 16.8555 24 13.3341 24 9" stroke="#292D32" stroke-width="1.5" stroke-linecap="round" stroke-linejoin="round"/>
<path d="M17 32.9999C14.0757 32.9999 11.2174 32.4924 9.00002 30.9999C5.11165 28.3719 5.11165 23.6118 9.00002 20.9999C13.4186 18.015 20.5814 18.015 25 20.9999" stroke="#292D32" stroke-width="1.5" stroke-linecap="round" stroke-linejoin="round"/>
<path d="M15 0.999994L8.00003 1.99999C6.05338 2.265 6.05338 2.73499 8.00003 2.99999L15 3.99999C16.0893 4.14932 17.9107 4.14932 19 3.99999L25 2.99999C26.9366 2.73499 26.9366 2.265 25 1.99999L19 0.999994C17.9107 0.848562 16.0893 0.850665 15 0.999994Z" stroke="#292D32" stroke-width="1.5" stroke-linecap="round" stroke-linejoin="round"/>
<path d="M8 4V6C8 6.56983 9.40125 6.82053 11 7L15 8C15.7328 8.08076 17.2539 8.08076 18 8L22 7C23.5987 6.82053 25 6.56983 25 6V4" stroke="#292D32" stroke-width="1.5" stroke-linecap="round" stroke-linejoin="round"/>
<path d="M26 12V3" stroke="#292D32" stroke-width="1.5" stroke-linecap="round" stroke-linejoin="round"/>
</svg>
