<svg width="322" height="112" viewBox="0 0 322 112" fill="none" xmlns="http://www.w3.org/2000/svg">
<path d="M74.65 97C87.0488 97 97.1 86.9488 97.1 74.55C97.1 62.1512 87.0488 52.1 74.65 52.1C62.2512 52.1 52.2 62.1512 52.2 74.55C52.2 86.9488 62.2512 97 74.65 97Z" fill="#97CF26"/>
<path d="M32.45 85C38.2214 85 42.9 80.3214 42.9 74.55C42.9 68.7786 38.2214 64.1 32.45 64.1C26.6786 64.1 22 68.7786 22 74.55C22 80.3214 26.6786 85 32.45 85Z" fill="#A169F7"/>
<path d="M74.65 46.8C82.6305 46.8 89.1 40.3305 89.1 32.35C89.1 24.3695 82.6305 17.9 74.65 17.9C66.6695 17.9 60.2 24.3695 60.2 32.35C60.2 40.3305 66.6695 46.8 74.65 46.8Z" fill="#FF6163"/>
<path d="M32.45 50.8C42.6397 50.8 50.9 42.5397 50.9 32.35C50.9 22.1603 42.6397 13.9 32.45 13.9C22.2603 13.9 14 22.1603 14 32.35C14 42.5397 22.2603 50.8 32.45 50.8Z" fill="#00AAFF"/>
<path d="M155.466 84.878H167.12L145.537 26.11H137.084L115.497 84.88H127.152L131.274 73.662H151.344L155.466 84.88L134.52 64.818L141.31 46.338L148.096 64.818H134.52L155.466 84.878ZM196.01 44.756L185.285 73.95L174.565 44.756H163.615L178.357 84.878H192.215L206.955 44.756H196.008M211.538 44.756H222.488V84.878H211.538V44.756Z" fill="black"/>
<path d="M217.05 40.2C220.944 40.2 224.1 37.0436 224.1 33.15C224.1 29.2564 220.944 26.1 217.05 26.1C213.156 26.1 210 29.2564 210 33.15C210 37.0436 213.156 40.2 217.05 40.2Z" fill="black"/>
<path d="M261.15 53.598V44.756H248.033V33.688H237.09V44.756H228.43V53.598H237.09V70.86C237.09 79.764 241.542 85.707 252.91 85.707C257.3 85.707 261.15 84.095 261.15 84.095L259.82 75.432C259.82 75.432 257.665 76.076 255.015 76.076C251.767 76.076 248.033 74.676 248.033 70.186V53.597L261.15 53.598ZM286.26 75.707C280.155 75.707 275.208 70.867 275.208 64.897C275.208 58.932 280.155 54.091 286.258 54.091C292.365 54.091 297.31 58.933 297.31 64.898C297.31 70.868 292.365 75.707 286.26 75.707ZM286.26 43.732C274.392 43.732 264.767 53.147 264.767 64.752C264.767 76.362 274.392 85.772 286.259 85.772C298.121 85.772 307.746 76.362 307.746 64.752C307.746 53.147 298.121 43.732 286.258 43.732" fill="black"/>
</svg>
