<svg id="wa"  viewBox="0 0 26 26" fill="none" xmlns="http://www.w3.org/2000/svg">
<path d="M0 25.2634L1.71489 19.0361C0.654671 17.2083 0.0984903 15.1383 0.104284 13.0221C0.104284 6.39122 5.52704 1 12.1838 1C15.4166 1 18.4524 2.25123 20.7293 4.52303C23.012 6.79484 24.2692 9.81624 24.2634 13.0279C24.2634 19.6588 18.8406 25.05 12.178 25.05H12.1722C10.1503 25.05 8.16311 24.5426 6.39607 23.5855L0 25.2634ZM6.70313 21.4117L7.06812 21.6308C8.60921 22.5418 10.3762 23.0204 12.178 23.0262H12.1838C17.7167 23.0262 22.224 18.546 22.224 13.0337C22.224 10.364 21.1812 7.85579 19.2867 5.96454C17.3922 4.07329 14.8662 3.0354 12.1838 3.0354C6.65099 3.02964 2.14361 7.50983 2.14361 13.0221C2.14361 14.9076 2.67082 16.747 3.6789 18.3384L3.91644 18.719L2.90257 22.4034L6.70313 21.4117Z" fill="white"/>
<path d="M0.422852 24.8425L2.07981 18.8285C1.05435 17.0699 0.515548 15.0691 0.515548 13.0279C0.521342 6.62761 5.75291 1.4209 12.1837 1.4209C15.3065 1.4209 18.2322 2.63176 20.4338 4.82285C22.6353 7.01393 23.8462 9.93154 23.8462 13.0337C23.8462 19.4339 18.6088 24.6406 12.1837 24.6406H12.178C10.2255 24.6406 8.30787 24.1505 6.60456 23.228L0.422852 24.8425Z" fill="url(#paint0_linear_593_183)"/>
<path d="M0 25.2634L1.71489 19.0361C0.654671 17.2083 0.0984903 15.1383 0.104284 13.0221C0.104284 6.39122 5.52704 1 12.1838 1C15.4166 1 18.4524 2.25123 20.7293 4.52303C23.012 6.79484 24.2692 9.81624 24.2634 13.0279C24.2634 19.6588 18.8406 25.05 12.178 25.05H12.1722C10.1503 25.05 8.16311 24.5426 6.39607 23.5855L0 25.2634ZM6.70313 21.4117L7.06812 21.6308C8.60921 22.5418 10.3762 23.0204 12.178 23.0262H12.1838C17.7167 23.0262 22.224 18.546 22.224 13.0337C22.224 10.364 21.1812 7.85579 19.2867 5.96454C17.3922 4.07329 14.8662 3.0354 12.1838 3.0354C6.65099 3.02964 2.14361 7.50983 2.14361 13.0221C2.14361 14.9076 2.67082 16.747 3.6789 18.3384L3.91644 18.719L2.90257 22.4034L6.70313 21.4117Z" fill="url(#paint1_linear_593_183)"/>
<path fill-rule="evenodd" clip-rule="evenodd" d="M9.16527 7.99419C8.93932 7.49255 8.70178 7.48101 8.48742 7.47525C8.31362 7.46948 8.11084 7.46948 7.90807 7.46948C7.70529 7.46948 7.38086 7.54444 7.10276 7.84427C6.82467 8.14411 6.04834 8.87062 6.04834 10.3525C6.04834 11.8286 7.13173 13.2586 7.28236 13.4604C7.433 13.6622 9.37383 16.7931 12.4386 17.9982C14.9878 19.0015 15.5092 18.7997 16.0596 18.7478C16.61 18.6959 17.844 18.0213 18.0989 17.3178C18.348 16.6144 18.348 16.0147 18.2727 15.8879C18.1974 15.761 17.9946 15.6861 17.6934 15.5361C17.3921 15.3862 15.909 14.6597 15.6309 14.5559C15.3528 14.4579 15.15 14.406 14.953 14.7058C14.7502 15.0057 14.1709 15.6803 13.9971 15.8821C13.8233 16.0839 13.6437 16.107 13.3424 15.9571C13.0411 15.8071 12.0678 15.49 10.9149 14.4637C10.0169 13.6679 9.4086 12.682 9.23479 12.3821C9.06098 12.0823 9.21741 11.9208 9.36804 11.7709C9.50129 11.6383 9.66931 11.4192 9.81994 11.2462C9.97057 11.0732 10.0227 10.9464 10.1212 10.7446C10.2197 10.5428 10.1733 10.3698 10.098 10.2199C10.0227 10.0757 9.43177 8.58809 9.16527 7.99419Z" fill="white"/>
<defs>
<linearGradient id="paint0_linear_593_183" x1="12.1339" y1="24.8413" x2="12.1339" y2="1.42008" gradientUnits="userSpaceOnUse">
<stop stop-color="#20B038"/>
<stop offset="1" stop-color="#60D66A"/>
</linearGradient>
<linearGradient id="paint1_linear_593_183" x1="12.1341" y1="25.2611" x2="12.1341" y2="1" gradientUnits="userSpaceOnUse">
<stop stop-color="#F9F9F9"/>
<stop offset="1" stop-color="white"/>
</linearGradient>
</defs>
</svg>
