<svg width="26" height="35" viewBox="0 0 26 35" fill="none" xmlns="http://www.w3.org/2000/svg">
<path fill-rule="evenodd" clip-rule="evenodd" d="M4.37276 7.28571C4.10743 8.22872 5.02037 9 6 9V9C10.4183 9 14 12.5817 14 17C14 21.4183 10.4183 25 6 25C5.39711 25 4.8098 24.9333 4.24503 24.8069C4.12045 24.779 4 24.8723 4 25V25C4 30.5228 8.47715 35 14 35H21C23.7614 35 26 32.7614 26 30V5C26 2.23858 23.7614 0 21 0H14C9.41791 0 5.55561 3.08179 4.37276 7.28571Z" fill="#f6f6f6"/>
<circle cx="6" cy="17" r="5.5" fill="#FF9151" stroke="white"/>
</svg>
