<svg width="17" height="17" viewBox="0 0 17 17" fill="none" xmlns="http://www.w3.org/2000/svg">
<path d="M8.02414 3.10452C8.17315 2.64248 8.82685 2.64248 8.97587 3.10452L9.69865 5.34569C9.89885 5.96646 10.4773 6.3867 11.1295 6.38528L13.4844 6.38013C13.9698 6.37907 14.1718 7.00078 13.7785 7.28528L11.8703 8.66525C11.3418 9.04748 11.1209 9.72745 11.3238 10.3473L12.0564 12.5853C12.2074 13.0467 11.6785 13.431 11.2864 13.1447L9.38433 11.7564C8.85748 11.3719 8.14252 11.3719 7.61567 11.7564L5.7136 13.1447C5.32147 13.431 4.79261 13.0467 4.94364 12.5853L5.67621 10.3473C5.87913 9.72745 5.65819 9.04748 5.12967 8.66525L3.22154 7.28528C2.82817 7.00078 3.03017 6.37907 3.51565 6.38013L5.87048 6.38528C6.52273 6.3867 7.10115 5.96646 7.30135 5.34569L8.02414 3.10452Z" stroke="#20B038"/>
</svg>
