<svg id="shield-search" viewBox="0 0 52 52" fill="none" xmlns="http://www.w3.org/2000/svg">
<path d="M44 22.0001V15.0001C44 12.3559 41.4767 9.92444 39 9.00006L29 4.00006C27.2125 3.33364 23.7875 3.33364 22 4.00006L12 9.00006C9.52328 9.92444 7 12.3774 7 15.0001V31.0001C7 33.5367 8.95402 36.4737 11 38.0001L20 45.0001C21.5076 46.1609 23.9971 47.0001 26 47.0001" stroke="#F6F6F6" stroke-width="3" stroke-linecap="round" stroke-linejoin="round"/>
<path d="M40 23V17C40 14.9708 38.8743 12.7094 37 12L28 9.00003C26.6473 8.4886 25.3527 8.4886 24 9.00003L15 12C13.1257 12.7094 12 14.9873 12 17V30C12 31.9468 13.4517 33.8287 15 35L22 41C23.1409 41.8909 24.4843 42 26 42" stroke="white" stroke-linecap="round" stroke-linejoin="round"/>
<path d="M44 45H34C33.5998 44.9995 32.2833 45.3015 32 45C31.7167 44.6985 32.0013 43.4269 32 43V37C32.0003 36.5723 31.7167 35.3025 32 35C32.2834 34.6976 33.5992 35.0006 34 35H44C44.4002 35.0016 45.7174 34.6976 46 35C46.2826 35.3023 45.9996 36.573 46 37V43C45.9987 43.4263 46.2825 44.6986 46 45C45.7175 45.3014 44.3996 44.9985 44 45ZM34 37C33.98 37.0002 33.0141 36.9848 33 37C32.9859 37.0151 33 36.9786 33 37V43C33 43.0104 32.9962 42.9904 33 43C33.0039 43.0095 32.993 42.9928 33 43C33.0071 43.0072 32.9909 42.9964 33 43C33.0091 43.0036 33.9903 43.0005 34 43H44C44.0191 43 44.9866 43.0144 45 43C45.0135 42.9856 45 43.0202 45 43V37C45 36.9793 45.0134 37.015 45 37C44.9866 36.9848 44.0194 37.0011 44 37H34Z" fill="white"/>
<path d="M43 37H35C34.7979 37 34.143 37.1412 34 37C33.8572 36.8587 34 36.1998 34 36V33C34 31.6891 34.0624 29.9269 35 29C35.9377 28.073 37.674 28 39 28C40.3262 28 42.0624 28.073 43 29C43.9377 29.9269 44 31.6891 44 33V36C44 36.1998 44.1429 36.8587 44 37C43.857 37.1412 43.2021 37 43 37ZM36 35H42V33C42 32.0887 41.6518 31.6444 41 31C40.3482 30.3555 39.9219 30 39 30C38.0782 30 37.6518 30.3555 37 31C36.3482 31.6444 36 32.0887 36 33V35Z" fill="white"/>
<path d="M38 41C37.8674 41 38.0937 41.1196 38 41C37.9062 40.8804 38 40.1692 38 40C38 39.8308 37.9062 39.1196 38 39C38.0937 38.8803 37.8674 39 38 39C38.1326 39 38.9063 38.8803 39 39C39.0938 39.1196 39 39.8308 39 40C39 40.1692 39.0938 40.8804 39 41C38.9063 41.1196 38.1326 41 38 41Z" fill="white"/>
</svg>
